HIERARCHY
ROOT Hips
{
  OFFSET 0 0 0
  CHANNELS 6 Xposition Yposition Zposition Zrotation Yrotation Xrotation
  JOINT LeftThigh
  {
    OFFSET 8.409438 0 -5.917753
    CHANNELS 3 Zrotation Yrotation Xrotation
    JOINT LeftLeg
    {
      OFFSET 0 0 -42.358652
      CHANNELS 3 Zrotation Yrotation Xrotation
      JOINT LeftFoot
      {
        OFFSET 0 0 -39.357303
        CHANNELS 3 Zrotation Yrotation Xrotation
      }
    }
  }
  JOINT RightThigh
  {
    OFFSET -8.409438 0 -5.917753
    CHANNELS 3 Zrotation Yrotation Xrotation
    JOINT RightLeg
    {
      OFFSET 0 0 -42.358652
      CHANNELS 3 Zrotation Yrotation Xrotation
      JOINT RightFoot
      {
        OFFSET 0 0 -39.357303
        CHANNELS 3 Zrotation Yrotation Xrotation
      }
    }
  }
  JOINT SpineLow
  {
    OFFSET 0 0 4.719101
    CHANNELS 3 Zrotation Yrotation Xrotation
    JOINT SpineMid
    {
      OFFSET 0 0 12.899191
      CHANNELS 3 Zrotation Yrotation Xrotation
      JOINT Chest
      {
        OFFSET 0 0 12.899191
        CHANNELS 3 Zrotation Yrotation Xrotation
        JOINT LeftShoulder
        {
          OFFSET 7.550562 1.41573 9.438202
          CHANNELS 3 Zrotation Yrotation Xrotation
          JOINT LeftArm
          {
            OFFSET 9.155056 0 4.247191
            CHANNELS 3 Zrotation Yrotation Xrotation
            JOINT LeftForearm
            {
              OFFSET 0 0 25.771955
              CHANNELS 3 Zrotation Yrotation Xrotation
              JOINT LeftHand
              {
                OFFSET 0 0 25.197169
                CHANNELS 3 Zrotation Yrotation Xrotation
              }
            }
          }
        }
        JOINT RightShoulder
        {
          OFFSET -7.550562 1.41573 9.438202
          CHANNELS 3 Zrotation Yrotation Xrotation
          JOINT RightArm
          {
            OFFSET -9.155056 0 4.247191
            CHANNELS 3 Zrotation Yrotation Xrotation
            JOINT RightForearm
            {
              OFFSET 0 0 -25.771955
              CHANNELS 3 Zrotation Yrotation Xrotation
              JOINT RightHand
              {
                OFFSET 0 0 -25.197169
                CHANNELS 3 Zrotation Yrotation Xrotation
              }
            }
          }
        }
        JOINT Neck
        {
          OFFSET 0 0 15.101124
          CHANNELS 3 Zrotation Yrotation Xrotation
          JOINT Head
          {
            OFFSET 0 0 11.325843
            CHANNELS 3 Zrotation Yrotation Xrotation
            End Site
            {
              OFFSET 0 0 14.157303
            }
          }
        }
      }
    }
  }
}
MOTION
Frames: 5
Frame Time: 0.0
0.0  89.887642  0.0  -1.311916  -7.806531  -99.426261  10.810951  -17.10893  6.586515  -5.794955  3.358951  14.107736  1.192893  0.372824  0.806707  -5.61949  10.306771  6.662093  -15.55086  5.636486  9.633467  6.857299  2.451239  -0.241226  -3.911785  0.132024  0.239846  -10.69116  0.398509  0.632317  -10.69116  0.398509  0.632317  -25.995912  10.865125  1.983788  -168.320837  59.870361  -83.048428  -63.476672  9.708946  72.934739  109.920328  7.94725  -18.141278  -13.146468  -9.956368  4.712175  50.338633  13.896339  41.974411  -1.086628  7.806376  -112.202294  91.49668  -7.845424  -13.025043  -6.495521  -5.165477  -14.799313  -4.997216  -3.719972  -11.148426  
0.0  89.887642  0.0  -0.900559  -2.776683  -98.898151  9.456497  -16.161833  5.774177  -5.862809  2.704465  13.50722  -0.249743  0.317753  0.577137  -5.652278  10.289487  8.18754  -20.074273  6.096051  7.908171  7.048835  2.13099  -0.320345  -4.496849  -0.071798  0.347247  -12.292443  -0.131063  0.958716  -12.292442  -0.131063  0.958716  -23.558088  8.383984  -0.83177  -155.884757  60.966914  -69.964262  -53.563738  -0.577403  71.360316  110.576795  17.236567  -14.089363  -11.515431  -7.817807  5.072646  45.861834  14.76994  46.622377  -0.678152  6.157208  -113.868823  89.160178  -8.028354  -12.296394  -5.688237  -3.688576  -16.665001  -4.369293  -2.61389  -12.530051  
0.0  89.887642  0.0  -0.43752  0.323103  -98.586413  9.823422  -15.517048  5.23189  -6.994818  2.270991  12.714476  -0.933793  0.220393  0.416142  -5.682666  10.303999  9.442858  -21.518703  6.352441  6.737604  4.410559  1.446358  -0.799023  -4.647325  -0.28058  0.482786  -12.708427  -0.67112  1.367875  -12.708426  -0.67112  1.367875  -22.162694  5.551124  -2.912017  -141.235237  60.999881  -55.554974  -44.523422  -10.430422  68.715021  111.599216  25.751126  -6.548368  -10.574338  -6.136025  7.63432  42.332813  16.861928  50.158671  5.324336  3.261939  -112.602155  86.374585  -5.425532  -8.349527  -5.111011  -2.324804  -18.823862  -3.908808  -1.588032  -14.136558  
0.0  89.887642  0.0  0.134473  3.127131  -97.542157  10.119713  -14.80689  4.126994  -8.842915  2.210223  11.736698  -0.694147  0.080426  0.394553  -7.070181  10.522788  9.347915  -20.749514  6.471465  6.029389  3.733407  1.56993  -0.716502  -4.785835  -0.640754  0.416102  -13.094746  -1.661372  1.258974  -13.094747  -1.661371  1.258974  -21.2443  4.010703  -4.635095  -125.2351  60.883761  -40.882922  -34.947557  -19.1624  65.392267  113.050393  33.026146  3.981765  -12.9805  -1.669554  6.192697  44.379645  13.586668  55.658281  9.924152  -3.112578  -111.565161  85.696732  -3.686291  -7.83451  -4.237337  -0.630405  -20.969795  -3.204097  -0.327786  -15.732457  
0.0  89.887642  0.0  0.945153  6.805193  -97.375659  8.444342  -13.98377  4.29293  -10.015497  2.183794  10.796988  -0.488166  -0.01949  0.365487  -10.240684  11.631401  9.52142  -19.225415  6.548267  5.847098  2.906785  1.733759  -0.714543  -5.210163  -0.912567  0.431682  -14.263002  -2.388285  1.370251  -14.263003  -2.388285  1.37025  -20.076372  2.345894  -6.173644  -110.275322  60.428417  -28.223192  -24.900085  -25.432013  60.593388  114.806071  36.167508  16.73695  -12.59913  2.631649  7.176494  46.015772  11.253417  58.272151  12.473592  -8.160051  -109.370752  81.655847  -2.273316  -6.600854  -2.909205  0.764657  -22.978973  -2.156719  0.684134  -17.230812  
